<?xml version="1.0" encoding="utf-8"?>
<!-- Generator: Adobe Illustrator 16.0.0, SVG Export Plug-In . SVG Version: 6.00 Build 0)  -->
<!DOCTYPE svg PUBLIC "-//W3C//DTD SVG 1.1//EN" "http://www.w3.org/Graphics/SVG/1.1/DTD/svg11.dtd">
<svg version="1.1" id="Layer_1" xmlns="http://www.w3.org/2000/svg" xmlns:xlink="http://www.w3.org/1999/xlink" x="0px" y="0px"
	 width="960px" height="960px" viewBox="0 0 960 960" enable-background="new 0 0 960 960" xml:space="preserve">
<path d="M958.868,481.262c0,263.775-213.835,477.61-477.63,477.61c-263.734,0-477.591-213.835-477.591-477.61
	C3.647,217.51,217.504,3.653,481.238,3.653C745.033,3.653,958.868,217.51,958.868,481.262z"/>
<g>
	<path fill="#263238" d="M57.948,448.612v17.677h13.763v14.142H57.948v22.35c0,7.449,1.768,10.858,7.576,10.858
		c2.399,0,4.293-0.252,5.682-0.505l0.126,14.521c-2.525,1.01-7.071,1.642-12.5,1.642c-6.187,0-11.364-2.146-14.394-5.304
		c-3.536-3.661-5.303-9.596-5.303-18.309v-25.253h-8.208v-14.142h8.208v-13.384L57.948,448.612z"/>
	<path fill="#263238" d="M82.818,438.384h19.192v35.229h0.253c2.02-2.651,4.545-4.672,7.576-6.313
		c2.778-1.515,6.44-2.399,9.975-2.399c12.248,0,21.592,8.46,21.592,27.021v36.112h-19.193v-33.966
		c0-8.081-2.778-13.637-9.975-13.637c-5.051,0-8.208,3.283-9.597,6.692c-0.505,1.263-0.631,2.904-0.631,4.293v36.617H82.818V438.384
		z"/>
	<path fill="#263238" d="M171.581,503.285c0.631,7.955,8.459,11.742,17.425,11.742c6.566,0,11.869-0.884,17.046-2.525l2.525,13.006
		c-6.313,2.525-14.016,3.788-22.349,3.788c-20.96,0-32.956-12.122-32.956-31.44c0-15.657,9.722-32.956,31.188-32.956
		c19.95,0,27.526,15.531,27.526,30.809c0,3.283-0.379,6.188-0.631,7.576H171.581z M194.182,490.153c0-4.672-2.021-12.5-10.859-12.5
		c-8.081,0-11.364,7.324-11.869,12.5H194.182z"/>
	<path fill="#263238" d="M220.065,517.806c0-6.818,4.672-11.743,11.364-11.743c6.692,0,11.238,4.799,11.238,11.743
		c0,6.692-4.545,11.616-11.364,11.616C224.737,529.422,220.065,524.498,220.065,517.806z"/>
	<path fill="#263238" d="M254.28,486.618c0-9.092-0.252-15.026-0.505-20.329h16.541l0.631,11.364h0.505
		c3.157-8.965,10.732-12.753,16.667-12.753c1.768,0,2.652,0,4.041,0.252v18.057c-1.389-0.253-3.03-0.506-5.177-0.506
		c-7.071,0-11.869,3.788-13.132,9.723c-0.252,1.263-0.379,2.778-0.379,4.293v31.314H254.28V486.618z"/>
	<path fill="#263238" d="M335.973,528.033l-1.136-6.188h-0.379c-4.041,4.925-10.354,7.576-17.677,7.576
		c-12.5,0-19.95-9.091-19.95-18.939c0-16.036,14.395-23.738,36.239-23.612v-0.884c0-3.283-1.768-7.955-11.238-7.955
		c-6.313,0-13.005,2.146-17.046,4.671l-3.536-12.374c4.293-2.399,12.753-5.43,23.991-5.43c20.582,0,27.147,12.122,27.147,26.642
		v21.466c0,5.935,0.253,11.616,0.884,15.025H335.973z M333.701,498.865c-10.102-0.126-17.93,2.273-17.93,9.723
		c0,4.925,3.283,7.324,7.576,7.324c4.798,0,8.712-3.157,9.975-7.071c0.252-1.011,0.379-2.146,0.379-3.283V498.865z"/>
	<path fill="#263238" d="M367.536,485.986c0-7.702-0.252-14.268-0.505-19.697h16.667l0.884,8.459h0.379
		c2.525-3.914,8.839-9.849,19.066-9.849c12.626,0,22.097,8.333,22.097,26.516v36.617h-19.193v-34.218
		c0-7.955-2.778-13.385-9.722-13.385c-5.303,0-8.46,3.662-9.723,7.197c-0.505,1.137-0.758,3.03-0.758,4.798v35.607h-19.192V485.986z
		"/>
	<path fill="#263238" d="M501.375,438.384v71.215c0,6.944,0.253,14.268,0.506,18.435h-17.047l-0.884-9.091h-0.252
		c-3.915,6.944-11.364,10.479-19.319,10.479c-14.647,0-26.39-12.5-26.39-31.692c-0.126-20.834,12.879-32.83,27.652-32.83
		c7.576,0,13.51,2.652,16.288,6.945h0.253v-33.461H501.375z M482.183,492.426c0-1.01-0.126-2.398-0.253-3.409
		c-1.136-5.177-5.303-9.47-11.237-9.47c-8.712,0-13.258,7.828-13.258,17.551c0,10.48,5.177,17.046,13.132,17.046
		c5.556,0,9.975-3.788,11.111-9.217c0.379-1.39,0.505-2.778,0.505-4.42V492.426z"/>
	<path fill="#263238" d="M577.762,496.467c0,22.602-16.035,32.955-32.576,32.955c-18.057,0-31.945-11.869-31.945-31.819
		c0-19.95,13.132-32.703,32.955-32.703C565.136,464.9,577.762,477.905,577.762,496.467z M533.063,497.098
		c0,10.606,4.42,18.562,12.627,18.562c7.45,0,12.248-7.45,12.248-18.562c0-9.217-3.535-18.561-12.248-18.561
		C536.473,478.537,533.063,488.007,533.063,497.098z"/>
	<path fill="#263238" d="M589.627,485.986c0-7.702-0.252-14.268-0.505-19.697h16.162l0.884,8.333h0.379
		c2.651-3.915,8.081-9.723,18.688-9.723c7.955,0,14.268,4.041,16.92,10.48h0.252c2.273-3.156,5.051-5.682,7.955-7.45
		c3.409-2.02,7.197-3.03,11.743-3.03c11.868,0,20.833,8.333,20.833,26.768v36.365h-18.687v-33.587
		c0-8.965-2.904-14.142-9.092-14.142c-4.419,0-7.576,3.03-8.839,6.692c-0.505,1.389-0.757,3.409-0.757,4.924v36.112h-18.688v-34.597
		c0-7.829-2.778-13.132-8.839-13.132c-4.925,0-7.828,3.788-8.965,6.944c-0.632,1.516-0.758,3.283-0.758,4.798v35.986h-18.688
		V485.986z"/>
	<path fill="#263238" d="M696.82,517.806c0-6.818,4.672-11.743,11.364-11.743c6.691,0,11.237,4.799,11.237,11.743
		c0,6.692-4.546,11.616-11.364,11.616C701.492,529.422,696.82,524.498,696.82,517.806z"/>
	<path fill="#263238" d="M790.887,438.384v71.215c0,6.944,0.252,14.268,0.505,18.435h-17.046l-0.884-9.091h-0.253
		c-3.914,6.944-11.363,10.479-19.318,10.479c-14.647,0-26.39-12.5-26.39-31.692c-0.126-20.834,12.879-32.83,27.652-32.83
		c7.576,0,13.511,2.652,16.288,6.945h0.253v-33.461H790.887z M771.694,492.426c0-1.01-0.127-2.398-0.253-3.409
		c-1.137-5.177-5.303-9.47-11.237-9.47c-8.713,0-13.258,7.828-13.258,17.551c0,10.48,5.177,17.046,13.131,17.046
		c5.556,0,9.976-3.788,11.112-9.217c0.378-1.39,0.505-2.778,0.505-4.42V492.426z"/>
	<path fill="#263238" d="M821.06,503.285c0.631,7.955,8.46,11.742,17.425,11.742c6.565,0,11.869-0.884,17.046-2.525l2.525,13.006
		c-6.313,2.525-14.016,3.788-22.35,3.788c-20.96,0-32.955-12.122-32.955-31.44c0-15.657,9.723-32.956,31.188-32.956
		c19.95,0,27.526,15.531,27.526,30.809c0,3.283-0.379,6.188-0.632,7.576H821.06z M843.661,490.153c0-4.672-2.021-12.5-10.859-12.5
		c-8.081,0-11.363,7.324-11.868,12.5H843.661z"/>
	<path fill="#263238" d="M886.463,466.289l8.333,28.662c1.516,5.177,2.651,10.102,3.536,15.026h0.378
		c1.011-5.051,2.021-9.723,3.409-15.026l7.955-28.662h20.203l-22.98,61.744h-19.192l-22.476-61.744H886.463z"/>
</g>
<g>
	<path fill="#ECEFF1" d="M51.359,442.007v17.829H65.24V474.1H51.359v22.541c0,7.514,1.783,10.952,7.641,10.952
		c2.42,0,4.33-0.255,5.731-0.51l0.127,14.646c-2.547,1.019-7.132,1.655-12.608,1.655c-6.24,0-11.461-2.165-14.518-5.349
		c-3.566-3.693-5.349-9.679-5.349-18.466V474.1h-8.278v-14.263h8.278v-13.499L51.359,442.007z"/>
	<path fill="#ECEFF1" d="M76.448,431.692h19.357v35.531h0.255c2.038-2.674,4.584-4.712,7.641-6.368
		c2.802-1.528,6.495-2.419,10.061-2.419c12.353,0,21.777,8.532,21.777,27.253v36.422h-19.357v-34.257
		c0-8.151-2.802-13.754-10.061-13.754c-5.094,0-8.278,3.311-9.679,6.75c-0.509,1.273-0.637,2.929-0.637,4.33v36.932H76.448V431.692z
		"/>
	<path fill="#ECEFF1" d="M165.979,497.149c0.637,8.023,8.532,11.844,17.574,11.844c6.622,0,11.971-0.892,17.192-2.547l2.547,13.117
		c-6.368,2.547-14.136,3.82-22.541,3.82c-21.14,0-33.238-12.226-33.238-31.71c0-15.792,9.806-33.238,31.456-33.238
		c20.121,0,27.762,15.664,27.762,31.073c0,3.312-0.382,6.24-0.637,7.641H165.979z M188.774,483.905
		c0-4.712-2.038-12.607-10.952-12.607c-8.15,0-11.461,7.386-11.971,12.607H188.774z"/>
	<path fill="#ECEFF1" d="M214.886,511.795c0-6.877,4.712-11.844,11.461-11.844s11.334,4.84,11.334,11.844
		c0,6.75-4.584,11.716-11.461,11.716C219.598,523.511,214.886,518.545,214.886,511.795z"/>
	<path fill="#FF3D00" d="M249.399,480.34c0-9.169-0.255-15.155-0.51-20.503h16.683l0.637,11.461h0.509
		c3.184-9.042,10.825-12.862,16.81-12.862c1.783,0,2.674,0,4.075,0.254v18.211c-1.401-0.255-3.056-0.51-5.221-0.51
		c-7.131,0-11.971,3.821-13.245,9.806c-0.254,1.273-0.382,2.802-0.382,4.33v31.583h-19.357V480.34z"/>
	<path fill="#FF3D00" d="M331.797,522.11l-1.146-6.24h-0.382c-4.075,4.967-10.443,7.641-17.829,7.641
		c-12.608,0-20.121-9.169-20.121-19.102c0-16.174,14.518-23.942,36.549-23.815v-0.892c0-3.311-1.783-8.023-11.334-8.023
		c-6.367,0-13.117,2.165-17.192,4.712l-3.566-12.48c4.33-2.42,12.862-5.476,24.196-5.476c20.758,0,27.38,12.226,27.38,26.871v21.649
		c0,5.985,0.255,11.716,0.892,15.154H331.797z M329.505,492.692c-10.188-0.127-18.084,2.292-18.084,9.806
		c0,4.967,3.312,7.387,7.641,7.387c4.839,0,8.787-3.184,10.061-7.132c0.255-1.019,0.382-2.165,0.382-3.311V492.692z"/>
	<path fill="#FF3D00" d="M363.638,479.703c0-7.768-0.255-14.39-0.51-19.866h16.811l0.891,8.532h0.382
		c2.547-3.948,8.915-9.933,19.229-9.933c12.735,0,22.287,8.405,22.287,26.743v36.932h-19.357v-34.512
		c0-8.023-2.802-13.499-9.806-13.499c-5.349,0-8.533,3.693-9.806,7.259c-0.509,1.146-0.764,3.057-0.764,4.839v35.913h-19.357
		V479.703z"/>
	<path fill="#FF3D00" d="M498.633,431.692v71.826c0,7.004,0.255,14.391,0.509,18.593H481.95l-0.892-9.169h-0.255
		c-3.948,7.004-11.461,10.569-19.484,10.569c-14.773,0-26.616-12.607-26.616-31.964c-0.127-21.013,12.99-33.111,27.89-33.111
		c7.641,0,13.626,2.674,16.428,7.004h0.254v-33.748H498.633z M479.275,486.197c0-1.019-0.127-2.419-0.254-3.438
		c-1.146-5.221-5.349-9.551-11.334-9.551c-8.787,0-13.372,7.896-13.372,17.701c0,10.57,5.221,17.192,13.244,17.192
		c5.604,0,10.061-3.82,11.207-9.296c0.382-1.401,0.509-2.802,0.509-4.458V486.197z"/>
	<path fill="#FF3D00" d="M575.683,490.272c0,22.796-16.174,33.238-32.856,33.238c-18.211,0-32.22-11.971-32.22-32.092
		s13.245-32.983,33.238-32.983C562.947,458.436,575.683,471.552,575.683,490.272z M530.601,490.909
		c0,10.698,4.457,18.721,12.735,18.721c7.514,0,12.353-7.514,12.353-18.721c0-9.296-3.565-18.72-12.353-18.72
		C534.039,472.189,530.601,481.74,530.601,490.909z"/>
	<path fill="#FF3D00" d="M587.657,479.703c0-7.768-0.255-14.39-0.51-19.866h16.301l0.892,8.405h0.382
		c2.675-3.948,8.15-9.806,18.848-9.806c8.023,0,14.391,4.075,17.065,10.57h0.255c2.292-3.184,5.094-5.73,8.022-7.514
		c3.438-2.038,7.259-3.056,11.844-3.056c11.971,0,21.013,8.405,21.013,26.998v36.677h-18.848v-33.875
		c0-9.042-2.929-14.263-9.169-14.263c-4.458,0-7.642,3.056-8.915,6.75c-0.509,1.4-0.764,3.438-0.764,4.967v36.422h-18.848v-34.894
		c0-7.896-2.802-13.245-8.915-13.245c-4.967,0-7.896,3.82-9.042,7.004c-0.637,1.528-0.764,3.311-0.764,4.839v36.295h-18.848V479.703
		z"/>
	<path fill="#ECEFF1" d="M695.78,511.795c0-6.877,4.712-11.844,11.462-11.844c6.749,0,11.334,4.84,11.334,11.844
		c0,6.75-4.585,11.716-11.462,11.716C700.492,523.511,695.78,518.545,695.78,511.795z"/>
	<path fill="#ECEFF1" d="M790.657,431.692v71.826c0,7.004,0.255,14.391,0.51,18.593h-17.192l-0.892-9.169h-0.255
		c-3.947,7.004-11.461,10.569-19.484,10.569c-14.772,0-26.616-12.607-26.616-31.964c-0.127-21.013,12.99-33.111,27.89-33.111
		c7.642,0,13.627,2.674,16.429,7.004h0.255v-33.748H790.657z M771.301,486.197c0-1.019-0.128-2.419-0.255-3.438
		c-1.146-5.221-5.349-9.551-11.334-9.551c-8.787,0-13.372,7.896-13.372,17.701c0,10.57,5.222,17.192,13.244,17.192
		c5.604,0,10.061-3.82,11.207-9.296c0.382-1.401,0.51-2.802,0.51-4.458V486.197z"/>
	<path fill="#ECEFF1" d="M821.097,497.149c0.637,8.023,8.533,11.844,17.574,11.844c6.622,0,11.972-0.892,17.192-2.547l2.547,13.117
		c-6.367,2.547-14.136,3.82-22.541,3.82c-21.14,0-33.238-12.226-33.238-31.71c0-15.792,9.807-33.238,31.456-33.238
		c20.121,0,27.762,15.664,27.762,31.073c0,3.312-0.382,6.24-0.637,7.641H821.097z M843.893,483.905
		c0-4.712-2.037-12.607-10.952-12.607c-8.15,0-11.461,7.386-11.971,12.607H843.893z"/>
	<path fill="#ECEFF1" d="M887.068,459.836l8.404,28.909c1.528,5.221,2.675,10.188,3.566,15.154h0.382
		c1.019-5.094,2.038-9.806,3.438-15.154l8.023-28.909h20.376l-23.178,62.274h-19.357l-22.668-62.274H887.068z"/>
</g>
</svg>
