<?xml version="1.0" encoding="utf-8"?>
<!-- Generator: Adobe Illustrator 16.0.0, SVG Export Plug-In . SVG Version: 6.00 Build 0)  -->
<!DOCTYPE svg PUBLIC "-//W3C//DTD SVG 1.1//EN" "http://www.w3.org/Graphics/SVG/1.1/DTD/svg11.dtd">
<svg version="1.1" id="Layer_1" xmlns="http://www.w3.org/2000/svg" xmlns:xlink="http://www.w3.org/1999/xlink" x="0px" y="0px"
	 width="24px" height="24px" viewBox="0 0 24 24" enable-background="new 0 0 24 24" xml:space="preserve">
<circle cx="12.02" cy="12.026" r="11.956"/>
<g>
	<path fill="#263238" d="M1.424,11.208v0.443h0.345v0.355H1.424v0.559c0,0.188,0.044,0.273,0.19,0.273
		c0.06,0,0.107-0.006,0.142-0.013l0.003,0.364c-0.063,0.025-0.177,0.04-0.313,0.04c-0.156,0-0.286-0.052-0.36-0.133
		c-0.089-0.09-0.133-0.238-0.133-0.458v-0.632H0.748V11.65h0.205v-0.335L1.424,11.208z"/>
	<path fill="#263238" d="M2.046,10.953h0.479v0.882h0.008c0.05-0.067,0.113-0.118,0.189-0.159c0.069-0.038,0.161-0.06,0.25-0.06
		c0.307,0,0.541,0.211,0.541,0.676v0.903h-0.48v-0.848c0-0.204-0.07-0.342-0.25-0.342c-0.127,0-0.206,0.082-0.24,0.167
		c-0.013,0.031-0.017,0.072-0.017,0.108v0.915H2.046V10.953z"/>
	<path fill="#263238" d="M4.268,12.577c0.016,0.199,0.211,0.294,0.437,0.294c0.164,0,0.297-0.022,0.427-0.063l0.063,0.323
		c-0.158,0.063-0.352,0.096-0.559,0.096c-0.526,0-0.825-0.303-0.825-0.787c0-0.392,0.243-0.825,0.78-0.825
		c0.5,0,0.689,0.389,0.689,0.771c0,0.082-0.01,0.154-0.016,0.189H4.268z M4.834,12.248c0-0.116-0.05-0.313-0.271-0.313
		c-0.203,0-0.285,0.183-0.297,0.313H4.834z"/>
	<path fill="#263238" d="M5.482,12.942c0-0.171,0.117-0.296,0.284-0.296s0.281,0.121,0.281,0.296c0,0.167-0.113,0.291-0.284,0.291
		C5.599,13.232,5.482,13.108,5.482,12.942z"/>
	<path fill="#263238" d="M6.338,12.159c0-0.228-0.007-0.375-0.013-0.509H6.74l0.016,0.285h0.013c0.08-0.224,0.268-0.319,0.417-0.319
		c0.043,0,0.066,0,0.101,0.006v0.453c-0.035-0.007-0.076-0.014-0.13-0.014c-0.176,0-0.297,0.096-0.329,0.244
		c-0.006,0.031-0.009,0.069-0.009,0.107v0.782h-0.48V12.159z"/>
	<path fill="#263238" d="M8.383,13.195l-0.028-0.152H8.346c-0.103,0.122-0.26,0.189-0.443,0.189c-0.313,0-0.5-0.228-0.5-0.475
		c0-0.401,0.36-0.595,0.907-0.591v-0.022c0-0.082-0.044-0.198-0.28-0.198c-0.159,0-0.326,0.053-0.427,0.116l-0.09-0.309
		c0.108-0.06,0.32-0.136,0.602-0.136c0.515,0,0.68,0.304,0.68,0.667v0.537c0,0.148,0.005,0.29,0.021,0.375H8.383z M8.327,12.467
		c-0.253-0.003-0.449,0.057-0.449,0.244c0,0.124,0.082,0.184,0.19,0.184c0.12,0,0.218-0.08,0.25-0.178
		c0.005-0.025,0.009-0.053,0.009-0.082V12.467z"/>
	<path fill="#263238" d="M9.173,12.144c0-0.193-0.006-0.356-0.013-0.493h0.417L9.6,11.863h0.009
		c0.064-0.099,0.221-0.247,0.477-0.247c0.316,0,0.553,0.208,0.553,0.664v0.915h-0.48V12.34c0-0.199-0.069-0.334-0.243-0.334
		c-0.132,0-0.211,0.09-0.243,0.179c-0.013,0.029-0.02,0.077-0.02,0.121v0.89h-0.48V12.144z"/>
	<path fill="#263238" d="M12.524,10.953v1.782c0,0.174,0.006,0.357,0.012,0.46H12.11l-0.022-0.226h-0.006
		c-0.098,0.173-0.284,0.263-0.483,0.263c-0.366,0-0.661-0.313-0.661-0.794c-0.003-0.521,0.322-0.822,0.692-0.822
		c0.19,0,0.338,0.066,0.407,0.174h0.007v-0.837H12.524z M12.043,12.306c0-0.025-0.003-0.061-0.007-0.085
		c-0.028-0.13-0.133-0.237-0.281-0.237c-0.218,0-0.332,0.195-0.332,0.438c0,0.263,0.129,0.427,0.329,0.427
		c0.138,0,0.249-0.096,0.278-0.231c0.009-0.034,0.013-0.069,0.013-0.111V12.306z"/>
	<path fill="#263238" d="M14.437,12.407c0,0.564-0.403,0.826-0.816,0.826c-0.45,0-0.799-0.298-0.799-0.798
		c0-0.499,0.329-0.818,0.824-0.818C14.119,11.616,14.437,11.942,14.437,12.407z M13.316,12.422c0,0.265,0.11,0.465,0.318,0.465
		c0.184,0,0.303-0.186,0.303-0.465c0-0.23-0.086-0.465-0.303-0.465C13.401,11.957,13.316,12.195,13.316,12.422z"/>
	<path fill="#263238" d="M14.734,12.144c0-0.193-0.008-0.356-0.015-0.493h0.405l0.022,0.21h0.01
		c0.064-0.099,0.202-0.244,0.467-0.244c0.199,0,0.356,0.101,0.424,0.263h0.005c0.058-0.081,0.127-0.144,0.201-0.187
		c0.085-0.051,0.18-0.077,0.294-0.077c0.297,0,0.521,0.208,0.521,0.671v0.908h-0.468v-0.839c0-0.224-0.074-0.354-0.229-0.354
		c-0.11,0-0.19,0.075-0.222,0.167c-0.013,0.034-0.019,0.085-0.019,0.123v0.903h-0.466V12.33c0-0.195-0.072-0.327-0.222-0.327
		c-0.124,0-0.197,0.093-0.227,0.174c-0.016,0.038-0.019,0.082-0.019,0.12v0.899h-0.466V12.144z"/>
	<path fill="#263238" d="M17.416,12.942c0-0.171,0.115-0.296,0.285-0.296c0.167,0,0.281,0.121,0.281,0.296
		c0,0.167-0.114,0.291-0.285,0.291C17.531,13.232,17.416,13.108,17.416,12.942z"/>
	<path fill="#263238" d="M19.771,10.953v1.782c0,0.174,0.005,0.357,0.011,0.46h-0.428l-0.02-0.226h-0.007
		c-0.1,0.173-0.284,0.263-0.483,0.263c-0.367,0-0.661-0.313-0.661-0.794c-0.004-0.521,0.323-0.822,0.693-0.822
		c0.188,0,0.339,0.066,0.406,0.174h0.008v-0.837H19.771z M19.291,12.306c0-0.025-0.003-0.061-0.008-0.085
		c-0.026-0.13-0.133-0.237-0.279-0.237c-0.218,0-0.332,0.195-0.332,0.438c0,0.263,0.129,0.427,0.327,0.427
		c0.14,0,0.251-0.096,0.278-0.231c0.011-0.034,0.014-0.069,0.014-0.111V12.306z"/>
	<path fill="#263238" d="M20.525,12.577c0.016,0.199,0.212,0.294,0.436,0.294c0.166,0,0.297-0.022,0.427-0.063l0.065,0.323
		c-0.158,0.063-0.352,0.096-0.561,0.096c-0.525,0-0.824-0.303-0.824-0.787c0-0.392,0.243-0.825,0.779-0.825
		c0.5,0,0.69,0.389,0.69,0.771c0,0.082-0.01,0.154-0.018,0.189H20.525z M21.091,12.248c0-0.116-0.05-0.313-0.27-0.313
		c-0.204,0-0.285,0.183-0.298,0.313H21.091z"/>
	<path fill="#263238" d="M22.164,11.65l0.208,0.719c0.037,0.13,0.066,0.253,0.089,0.376h0.01c0.024-0.127,0.05-0.244,0.083-0.376
		l0.201-0.719h0.505l-0.575,1.545h-0.479l-0.564-1.545H22.164z"/>
</g>
<g>
	<path fill="#ECEFF1" d="M1.259,11.044v0.446h0.347v0.356H1.259v0.564c0,0.188,0.045,0.275,0.19,0.275
		c0.061,0,0.108-0.007,0.145-0.013l0.003,0.366c-0.063,0.027-0.179,0.041-0.315,0.041c-0.156,0-0.287-0.052-0.363-0.133
		c-0.089-0.092-0.134-0.242-0.134-0.462v-0.637H0.577V11.49h0.207v-0.338L1.259,11.044z"/>
	<path fill="#ECEFF1" d="M1.887,10.784h0.484v0.89h0.007c0.051-0.067,0.114-0.118,0.191-0.159c0.07-0.039,0.162-0.062,0.251-0.062
		c0.31,0,0.545,0.213,0.545,0.683v0.912H2.881v-0.857c0-0.205-0.07-0.345-0.251-0.345c-0.128,0-0.208,0.082-0.242,0.169
		c-0.013,0.033-0.017,0.073-0.017,0.108v0.925H1.887V10.784z"/>
	<path fill="#ECEFF1" d="M4.128,12.423c0.016,0.201,0.213,0.296,0.44,0.296c0.166,0,0.299-0.022,0.429-0.064l0.064,0.328
		c-0.16,0.065-0.354,0.096-0.564,0.096c-0.529,0-0.832-0.305-0.832-0.792c0-0.396,0.246-0.833,0.788-0.833
		c0.503,0,0.695,0.393,0.695,0.779c0,0.082-0.01,0.155-0.016,0.191H4.128z M4.699,12.093c0-0.118-0.051-0.316-0.275-0.316
		c-0.204,0-0.286,0.185-0.299,0.316H4.699z"/>
	<path fill="#ECEFF1" d="M5.353,12.791c0-0.173,0.118-0.297,0.287-0.297s0.283,0.121,0.283,0.297c0,0.167-0.114,0.292-0.287,0.292
		C5.47,13.083,5.353,12.958,5.353,12.791z"/>
	<path fill="#FF3D00" d="M6.217,12.002c0-0.229-0.007-0.38-0.013-0.513h0.417l0.016,0.287h0.013
		c0.081-0.227,0.272-0.323,0.421-0.323c0.044,0,0.067,0,0.103,0.007v0.456c-0.036-0.008-0.077-0.012-0.13-0.012
		c-0.179,0-0.3,0.096-0.333,0.244c-0.006,0.032-0.01,0.07-0.01,0.109v0.791H6.217V12.002z"/>
	<path fill="#FF3D00" d="M8.279,13.049L8.25,12.892H8.24c-0.102,0.125-0.261,0.191-0.446,0.191c-0.316,0-0.503-0.229-0.503-0.478
		c0-0.405,0.363-0.6,0.914-0.596v-0.022c0-0.082-0.044-0.2-0.283-0.2c-0.16,0-0.329,0.052-0.431,0.118l-0.089-0.313
		c0.108-0.062,0.322-0.139,0.606-0.139c0.519,0,0.685,0.308,0.685,0.673v0.542c0,0.15,0.007,0.294,0.022,0.381H8.279z M8.222,12.311
		c-0.256-0.001-0.453,0.058-0.453,0.246c0,0.125,0.083,0.186,0.191,0.186c0.12,0,0.219-0.081,0.251-0.179
		c0.006-0.025,0.011-0.055,0.011-0.084V12.311z"/>
	<path fill="#FF3D00" d="M9.075,11.987c0-0.195-0.005-0.36-0.013-0.497h0.421l0.022,0.213h0.009c0.064-0.099,0.224-0.25,0.482-0.25
		c0.318,0,0.557,0.212,0.557,0.67v0.925h-0.483v-0.864c0-0.201-0.07-0.338-0.247-0.338c-0.133,0-0.213,0.092-0.245,0.182
		c-0.013,0.029-0.019,0.077-0.019,0.121v0.9H9.075V11.987z"/>
	<path fill="#FF3D00" d="M12.455,10.784v1.798c0,0.176,0.007,0.36,0.013,0.466h-0.431l-0.021-0.23h-0.006
		c-0.1,0.176-0.288,0.265-0.488,0.265c-0.37,0-0.667-0.316-0.667-0.799c-0.003-0.525,0.325-0.83,0.698-0.83
		c0.191,0,0.34,0.068,0.41,0.176h0.007v-0.846H12.455z M11.97,12.149c0-0.025-0.003-0.06-0.007-0.085
		c-0.028-0.132-0.133-0.239-0.284-0.239c-0.219,0-0.335,0.198-0.335,0.442c0,0.265,0.131,0.431,0.333,0.431
		c0.14,0,0.251-0.096,0.28-0.232c0.01-0.034,0.013-0.07,0.013-0.111V12.149z"/>
	<path fill="#FF3D00" d="M14.384,12.251c0,0.57-0.404,0.832-0.821,0.832c-0.458,0-0.808-0.299-0.808-0.803s0.332-0.827,0.833-0.827
		C14.065,11.454,14.384,11.784,14.384,12.251z M13.255,12.267c0,0.268,0.112,0.47,0.317,0.47c0.189,0,0.311-0.188,0.311-0.47
		c0-0.232-0.088-0.468-0.311-0.468C13.34,11.798,13.255,12.038,13.255,12.267z"/>
	<path fill="#FF3D00" d="M14.683,11.987c0-0.195-0.007-0.36-0.012-0.497h0.408l0.021,0.21h0.009
		c0.068-0.099,0.205-0.246,0.472-0.246c0.202,0,0.361,0.103,0.429,0.265h0.005c0.059-0.079,0.128-0.144,0.202-0.188
		c0.084-0.051,0.18-0.077,0.297-0.077c0.299,0,0.526,0.212,0.526,0.677v0.918h-0.472V12.2c0-0.226-0.075-0.356-0.23-0.356
		c-0.112,0-0.191,0.076-0.224,0.168c-0.013,0.036-0.019,0.085-0.019,0.125v0.912h-0.472v-0.875c0-0.198-0.07-0.331-0.224-0.331
		c-0.124,0-0.198,0.095-0.227,0.175c-0.017,0.038-0.02,0.082-0.02,0.122v0.908h-0.472V11.987z"/>
	<path fill="#ECEFF1" d="M17.39,12.791c0-0.173,0.118-0.297,0.287-0.297c0.168,0,0.284,0.121,0.284,0.297
		c0,0.167-0.116,0.292-0.285,0.292C17.508,13.083,17.39,12.958,17.39,12.791z"/>
	<path fill="#ECEFF1" d="M19.766,10.784v1.798c0,0.176,0.007,0.36,0.012,0.466h-0.431l-0.021-0.23h-0.008
		c-0.098,0.176-0.286,0.265-0.487,0.265c-0.37,0-0.667-0.316-0.667-0.799c-0.002-0.525,0.326-0.83,0.701-0.83
		c0.191,0,0.339,0.068,0.409,0.176h0.006v-0.846H19.766z M19.279,12.149c0-0.025-0.002-0.06-0.006-0.085
		c-0.027-0.132-0.134-0.239-0.283-0.239c-0.219,0-0.335,0.198-0.335,0.442c0,0.265,0.131,0.431,0.331,0.431
		c0.141,0,0.254-0.096,0.28-0.232c0.011-0.034,0.013-0.07,0.013-0.111V12.149z"/>
	<path fill="#ECEFF1" d="M20.528,12.423c0.014,0.201,0.213,0.296,0.439,0.296c0.164,0,0.298-0.022,0.431-0.064l0.062,0.328
		c-0.157,0.065-0.353,0.096-0.563,0.096c-0.529,0-0.832-0.305-0.832-0.792c0-0.396,0.246-0.833,0.787-0.833
		c0.504,0,0.694,0.393,0.694,0.779c0,0.082-0.008,0.155-0.014,0.191H20.528z M21.098,12.093c0-0.118-0.051-0.316-0.272-0.316
		c-0.206,0-0.287,0.185-0.302,0.316H21.098z"/>
	<path fill="#ECEFF1" d="M22.178,11.49l0.212,0.724c0.037,0.13,0.066,0.254,0.088,0.378h0.011c0.025-0.127,0.052-0.245,0.085-0.378
		l0.202-0.724h0.509l-0.58,1.559h-0.485l-0.565-1.559H22.178z"/>
</g>
</svg>
