<?xml version="1.0" encoding="utf-8"?>
<!-- Generator: Adobe Illustrator 16.0.0, SVG Export Plug-In . SVG Version: 6.00 Build 0)  -->
<!DOCTYPE svg PUBLIC "-//W3C//DTD SVG 1.1//EN" "http://www.w3.org/Graphics/SVG/1.1/DTD/svg11.dtd">
<svg version="1.1" id="Layer_1" xmlns="http://www.w3.org/2000/svg" xmlns:xlink="http://www.w3.org/1999/xlink" x="0px" y="0px"
	 width="24px" height="24px" viewBox="0 0 24 24" enable-background="new 0 0 24 24" xml:space="preserve">
<circle cx="12.037" cy="12.042" r="11.972"/>
<g>
	<path fill="#263238" d="M1.426,11.223v0.443h0.345v0.356H1.426v0.56c0,0.188,0.044,0.273,0.19,0.273
		c0.06,0,0.108-0.006,0.143-0.013l0.003,0.364c-0.063,0.025-0.177,0.041-0.313,0.041c-0.156,0-0.286-0.052-0.361-0.134
		c-0.088-0.09-0.133-0.238-0.133-0.458v-0.633H0.749v-0.356h0.206v-0.335L1.426,11.223z"/>
	<path fill="#263238" d="M2.049,10.968h0.48v0.883h0.008c0.05-0.066,0.113-0.118,0.189-0.159c0.069-0.038,0.162-0.061,0.25-0.061
		c0.308,0,0.542,0.212,0.542,0.677v0.905H3.037v-0.85c0-0.204-0.07-0.342-0.25-0.342c-0.127,0-0.207,0.082-0.24,0.167
		c-0.013,0.031-0.017,0.072-0.017,0.108v0.917h-0.48V10.968z"/>
	<path fill="#263238" d="M4.274,12.595c0.016,0.199,0.212,0.294,0.437,0.294c0.164,0,0.297-0.022,0.427-0.063l0.063,0.324
		c-0.159,0.063-0.352,0.096-0.56,0.096c-0.526,0-0.826-0.304-0.826-0.788c0-0.392,0.243-0.826,0.781-0.826
		c0.5,0,0.69,0.39,0.69,0.773c0,0.082-0.01,0.154-0.016,0.19H4.274z M4.84,12.265c0-0.116-0.05-0.313-0.271-0.313
		c-0.203,0-0.285,0.183-0.298,0.313H4.84z"/>
	<path fill="#263238" d="M5.49,12.959c0-0.171,0.117-0.296,0.285-0.296c0.168,0,0.281,0.121,0.281,0.296
		c0,0.167-0.113,0.291-0.285,0.291C5.607,13.25,5.49,13.127,5.49,12.959z"/>
	<path fill="#263238" d="M6.347,12.176c0-0.228-0.007-0.376-0.013-0.51h0.415l0.016,0.286h0.013c0.08-0.224,0.269-0.32,0.417-0.32
		c0.044,0,0.066,0,0.101,0.007v0.454c-0.035-0.007-0.076-0.014-0.13-0.014c-0.177,0-0.298,0.096-0.33,0.245
		c-0.005,0.031-0.009,0.069-0.009,0.108v0.783H6.347V12.176z"/>
	<path fill="#263238" d="M8.395,13.214l-0.029-0.153H8.357c-0.103,0.122-0.26,0.189-0.444,0.189c-0.314,0-0.5-0.228-0.5-0.475
		c0-0.402,0.361-0.596,0.908-0.592V12.16c0-0.082-0.044-0.198-0.281-0.198c-0.159,0-0.326,0.053-0.427,0.116l-0.09-0.31
		c0.108-0.06,0.32-0.137,0.603-0.137c0.515,0,0.681,0.305,0.681,0.668v0.538c0,0.149,0.005,0.291,0.021,0.375H8.395z M8.338,12.484
		c-0.253-0.003-0.45,0.057-0.45,0.244c0,0.124,0.082,0.184,0.19,0.184c0.121,0,0.219-0.08,0.25-0.178
		c0.006-0.025,0.01-0.053,0.01-0.082V12.484z"/>
	<path fill="#263238" d="M9.186,12.16c0-0.193-0.006-0.357-0.013-0.494h0.417l0.022,0.214h0.009
		c0.064-0.099,0.221-0.248,0.478-0.248c0.317,0,0.554,0.209,0.554,0.666v0.917h-0.481v-0.857c0-0.2-0.069-0.335-0.244-0.335
		c-0.132,0-0.212,0.09-0.243,0.18c-0.013,0.029-0.02,0.077-0.02,0.121v0.891H9.186V12.16z"/>
	<path fill="#263238" d="M12.542,10.968v1.784c0,0.175,0.006,0.357,0.012,0.461h-0.427l-0.022-0.227h-0.006
		C12,13.16,11.813,13.25,11.613,13.25c-0.366,0-0.661-0.313-0.661-0.795c-0.003-0.521,0.322-0.823,0.693-0.823
		c0.19,0,0.338,0.067,0.408,0.175h0.007v-0.838H12.542z M12.06,12.323c0-0.025-0.003-0.061-0.007-0.085
		C12.024,12.107,11.92,12,11.771,12c-0.218,0-0.332,0.195-0.332,0.439c0,0.264,0.13,0.428,0.329,0.428
		c0.139,0,0.25-0.096,0.278-0.231c0.009-0.034,0.013-0.069,0.013-0.11V12.323z"/>
	<path fill="#263238" d="M14.457,12.424c0,0.565-0.404,0.826-0.818,0.826c-0.451,0-0.8-0.297-0.8-0.799
		c0-0.499,0.329-0.819,0.825-0.819C14.139,11.632,14.457,11.959,14.457,12.424z M13.335,12.439c0,0.266,0.11,0.466,0.318,0.466
		c0.185,0,0.304-0.187,0.304-0.466c0-0.231-0.087-0.465-0.304-0.465C13.42,11.974,13.335,12.212,13.335,12.439z"/>
	<path fill="#263238" d="M14.755,12.16c0-0.193-0.008-0.357-0.015-0.494h0.406l0.022,0.211h0.01c0.064-0.1,0.202-0.245,0.467-0.245
		c0.2,0,0.357,0.101,0.425,0.264h0.005c0.058-0.081,0.127-0.144,0.201-0.187c0.085-0.051,0.18-0.077,0.294-0.077
		c0.298,0,0.522,0.209,0.522,0.672v0.91h-0.468v-0.841c0-0.225-0.075-0.354-0.229-0.354c-0.111,0-0.191,0.075-0.223,0.167
		c-0.014,0.034-0.019,0.085-0.019,0.123v0.905h-0.467v-0.867c0-0.195-0.072-0.328-0.223-0.328c-0.123,0-0.196,0.093-0.226,0.174
		c-0.016,0.038-0.019,0.082-0.019,0.12v0.901h-0.467V12.16z"/>
	<path fill="#263238" d="M17.44,12.959c0-0.171,0.115-0.296,0.285-0.296c0.167,0,0.281,0.121,0.281,0.296
		c0,0.167-0.114,0.291-0.285,0.291C17.556,13.25,17.44,13.127,17.44,12.959z"/>
	<path fill="#263238" d="M19.799,10.968v1.784c0,0.175,0.005,0.357,0.011,0.461h-0.428l-0.021-0.227h-0.006
		c-0.101,0.173-0.285,0.263-0.484,0.263c-0.368,0-0.662-0.313-0.662-0.795c-0.004-0.521,0.323-0.823,0.694-0.823
		c0.188,0,0.339,0.067,0.407,0.175h0.007v-0.838H19.799z M19.317,12.323c0-0.025-0.003-0.061-0.007-0.085
		C19.284,12.107,19.177,12,19.03,12c-0.219,0-0.333,0.195-0.333,0.439c0,0.264,0.13,0.428,0.328,0.428
		c0.14,0,0.251-0.096,0.278-0.231c0.011-0.034,0.014-0.069,0.014-0.11V12.323z"/>
	<path fill="#263238" d="M20.555,12.595c0.015,0.199,0.212,0.294,0.435,0.294c0.167,0,0.298-0.022,0.428-0.063l0.066,0.324
		c-0.159,0.063-0.354,0.096-0.563,0.096c-0.525,0-0.824-0.304-0.824-0.788c0-0.392,0.243-0.826,0.779-0.826
		c0.501,0,0.691,0.39,0.691,0.773c0,0.082-0.009,0.154-0.017,0.19H20.555z M21.12,12.265c0-0.116-0.05-0.313-0.271-0.313
		c-0.203,0-0.285,0.183-0.298,0.313H21.12z"/>
	<path fill="#263238" d="M22.195,11.666l0.208,0.72c0.037,0.13,0.065,0.253,0.088,0.376h0.011c0.024-0.127,0.05-0.245,0.083-0.376
		l0.201-0.72h0.506l-0.576,1.548h-0.48l-0.564-1.548H22.195z"/>
</g>
<g>
	<path fill="#ECEFF1" d="M1.26,11.059v0.447h0.348v0.356H1.26v0.565c0,0.189,0.045,0.275,0.191,0.275
		c0.061,0,0.108-0.007,0.145-0.013l0.003,0.367c-0.064,0.026-0.18,0.041-0.316,0.041c-0.156,0-0.287-0.053-0.364-0.134
		c-0.089-0.092-0.134-0.243-0.134-0.463v-0.639H0.577v-0.356h0.208v-0.339L1.26,11.059z"/>
	<path fill="#ECEFF1" d="M1.889,10.799h0.485v0.892h0.006c0.052-0.067,0.115-0.119,0.192-0.159c0.07-0.04,0.162-0.062,0.252-0.062
		c0.31,0,0.546,0.214,0.546,0.685v0.913H2.885v-0.858c0-0.205-0.07-0.346-0.252-0.346c-0.128,0-0.208,0.083-0.243,0.17
		c-0.013,0.033-0.016,0.073-0.016,0.108v0.926H1.889V10.799z"/>
	<path fill="#ECEFF1" d="M4.133,12.44c0.017,0.201,0.214,0.297,0.441,0.297c0.166,0,0.299-0.022,0.43-0.064l0.064,0.328
		c-0.16,0.065-0.354,0.097-0.565,0.097c-0.529,0-0.833-0.306-0.833-0.793c0-0.397,0.247-0.835,0.789-0.835
		c0.504,0,0.696,0.393,0.696,0.78c0,0.082-0.01,0.155-0.017,0.191H4.133z M4.706,12.109c0-0.118-0.051-0.317-0.275-0.317
		c-0.204,0-0.287,0.185-0.299,0.317H4.706z"/>
	<path fill="#ECEFF1" d="M5.36,12.809c0-0.173,0.118-0.297,0.287-0.297s0.284,0.121,0.284,0.297c0,0.167-0.114,0.293-0.287,0.293
		C5.478,13.102,5.36,12.976,5.36,12.809z"/>
	<path fill="#FF3D00" d="M6.225,12.019c0-0.23-0.006-0.38-0.013-0.513H6.63l0.016,0.287h0.013c0.081-0.227,0.272-0.323,0.421-0.323
		c0.044,0,0.067,0,0.103,0.007v0.457c-0.036-0.008-0.077-0.013-0.13-0.013c-0.18,0-0.3,0.096-0.333,0.245
		c-0.006,0.032-0.01,0.07-0.01,0.109v0.792H6.225V12.019z"/>
	<path fill="#FF3D00" d="M8.291,13.066l-0.03-0.157H8.251c-0.102,0.125-0.261,0.192-0.446,0.192c-0.317,0-0.504-0.229-0.504-0.479
		c0-0.405,0.364-0.6,0.916-0.596v-0.022c0-0.083-0.044-0.2-0.284-0.2c-0.16,0-0.33,0.053-0.431,0.118l-0.089-0.313
		c0.108-0.062,0.323-0.139,0.607-0.139c0.52,0,0.686,0.308,0.686,0.674v0.542c0,0.151,0.006,0.294,0.022,0.381H8.291z M8.233,12.328
		c-0.256-0.001-0.454,0.058-0.454,0.246c0,0.125,0.083,0.187,0.191,0.187c0.121,0,0.22-0.081,0.251-0.179
		c0.007-0.026,0.011-0.055,0.011-0.084V12.328z"/>
	<path fill="#FF3D00" d="M9.088,12.003c0-0.195-0.006-0.361-0.013-0.498h0.421l0.022,0.213h0.009c0.064-0.1,0.224-0.25,0.483-0.25
		c0.318,0,0.558,0.213,0.558,0.671v0.926h-0.484v-0.865c0-0.202-0.07-0.339-0.247-0.339c-0.134,0-0.214,0.092-0.245,0.182
		c-0.013,0.029-0.019,0.077-0.019,0.122v0.9H9.088V12.003z"/>
	<path fill="#FF3D00" d="M12.472,10.799V12.6c0,0.176,0.006,0.361,0.013,0.467h-0.432l-0.021-0.23h-0.006
		c-0.1,0.176-0.288,0.265-0.488,0.265c-0.371,0-0.667-0.317-0.667-0.801c-0.003-0.526,0.325-0.831,0.699-0.831
		c0.191,0,0.341,0.068,0.411,0.177h0.007v-0.847H12.472z M11.987,12.166c0-0.026-0.003-0.061-0.007-0.086
		c-0.028-0.132-0.133-0.239-0.284-0.239c-0.219,0-0.336,0.198-0.336,0.442c0,0.265,0.132,0.431,0.333,0.431
		c0.14,0,0.251-0.096,0.281-0.233c0.009-0.034,0.013-0.07,0.013-0.111V12.166z"/>
	<path fill="#FF3D00" d="M14.403,12.269c0,0.571-0.404,0.833-0.822,0.833c-0.458,0-0.809-0.3-0.809-0.804
		c0-0.505,0.333-0.828,0.833-0.828C14.085,11.469,14.403,11.8,14.403,12.269z M13.272,12.284c0,0.268,0.113,0.47,0.318,0.47
		c0.189,0,0.312-0.188,0.312-0.47c0-0.232-0.088-0.469-0.312-0.469C13.358,11.814,13.272,12.055,13.272,12.284z"/>
	<path fill="#FF3D00" d="M14.702,12.003c0-0.195-0.006-0.361-0.011-0.498h0.409l0.021,0.21h0.01
		c0.068-0.099,0.205-0.247,0.472-0.247c0.202,0,0.362,0.103,0.43,0.265h0.005c0.059-0.079,0.128-0.144,0.202-0.188
		c0.084-0.051,0.181-0.077,0.298-0.077c0.299,0,0.527,0.213,0.527,0.678v0.919h-0.474v-0.85c0-0.226-0.074-0.357-0.23-0.357
		c-0.112,0-0.191,0.077-0.225,0.169c-0.012,0.036-0.018,0.085-0.018,0.125v0.913h-0.473v-0.875c0-0.199-0.07-0.332-0.225-0.332
		c-0.123,0-0.197,0.095-0.226,0.176c-0.017,0.038-0.02,0.083-0.02,0.122v0.909h-0.474V12.003z"/>
	<path fill="#ECEFF1" d="M17.414,12.809c0-0.173,0.118-0.297,0.287-0.297c0.168,0,0.284,0.121,0.284,0.297
		c0,0.167-0.116,0.293-0.285,0.293C17.532,13.102,17.414,12.976,17.414,12.809z"/>
	<path fill="#ECEFF1" d="M19.793,10.799V12.6c0,0.176,0.007,0.361,0.012,0.467h-0.432l-0.021-0.23h-0.009
		c-0.098,0.176-0.286,0.265-0.487,0.265c-0.371,0-0.668-0.317-0.668-0.801c-0.002-0.526,0.326-0.831,0.702-0.831
		c0.191,0,0.339,0.068,0.409,0.177h0.007v-0.847H19.793z M19.307,12.166c0-0.026-0.003-0.061-0.007-0.086
		c-0.027-0.132-0.134-0.239-0.283-0.239c-0.219,0-0.336,0.198-0.336,0.442c0,0.265,0.131,0.431,0.332,0.431
		c0.141,0,0.254-0.096,0.28-0.233c0.011-0.034,0.014-0.07,0.014-0.111V12.166z"/>
	<path fill="#ECEFF1" d="M20.557,12.44c0.014,0.201,0.214,0.297,0.44,0.297c0.164,0,0.299-0.022,0.431-0.064l0.062,0.328
		c-0.157,0.065-0.353,0.097-0.563,0.097c-0.53,0-0.833-0.306-0.833-0.793c0-0.397,0.246-0.835,0.788-0.835
		c0.504,0,0.695,0.393,0.695,0.78c0,0.082-0.009,0.155-0.015,0.191H20.557z M21.127,12.109c0-0.118-0.051-0.317-0.273-0.317
		c-0.205,0-0.287,0.185-0.302,0.317H21.127z"/>
	<path fill="#ECEFF1" d="M22.208,11.506l0.212,0.725c0.038,0.13,0.067,0.255,0.089,0.379h0.011c0.025-0.128,0.052-0.246,0.085-0.379
		l0.202-0.725h0.51l-0.581,1.561H22.25l-0.567-1.561H22.208z"/>
</g>
</svg>
